<svg xmlns="http://www.w3.org/2000/svg" width="32" height="32" viewBox="0 0 32 32">
    <path fill="none" fill-rule="evenodd" stroke="#FF7800" stroke-linecap="round" stroke-linejoin="round" stroke-width="1.2" d="M20.819 13.268c.028.069.014.123-.043.165l-2.368 1.644c-.144.095-.23.185-.258.267-.029.095-.014.226.043.39l.904 2.651c.028.069.014.123-.043.165-.072.04-.13.04-.172 0l-2.39-1.644c-.143-.096-.265-.144-.366-.144h-.064c-.086 0-.208.048-.366.144l-2.368 1.644a.136.136 0 0 1-.172 0 .15.15 0 0 1-.065-.165l.904-2.65c.072-.165.086-.296.043-.391-.028-.082-.115-.172-.258-.267l-2.346-1.644a.15.15 0 0 1-.065-.165c.029-.055.079-.082.15-.082h2.907c.186 0 .315-.028.387-.082.072-.055.144-.171.216-.35l.904-2.65c.014-.055.057-.083.129-.083h.064c.072 0 .122.028.151.082l.904 2.651c.058.179.122.295.194.35.086.054.222.082.409.082h2.906c.057 0 .1.027.129.082zM27 13.6c0 1.766-.261 3.735-.646 4.862-1.205 3.572-4.405 6.696-9.6 9.372-.23.111-.481.166-.754.166-.272 0-.524-.055-.753-.166-5.195-2.676-8.513-5.753-9.58-9.372a17.094 17.094 0 0 1-.666-4.862c.014-1.78 0-4.3 0-4.32 0-1.49.954-2.618 2.346-2.963.614-.152 2.982-.814 7.103-1.986C15.15 4.111 15.667 4 16 4c.334 0 .879.11 1.636.331 3.77 1.076 6.123 1.738 7.06 1.986C26.104 6.69 27 7.77 27 9.28v4.32z"/>
</svg>
